<?xml version="1.0" encoding="UTF-8" standalone="no"?><!DOCTYPE svg PUBLIC "-//W3C//DTD SVG 1.1//EN" "http://www.w3.org/Graphics/SVG/1.1/DTD/svg11.dtd"><svg width="100%" height="100%" viewBox="0 0 951 210" version="1.1" xmlns="http://www.w3.org/2000/svg" xmlns:xlink="http://www.w3.org/1999/xlink" xml:space="preserve" xmlns:serif="http://www.serif.com/" style="fill-rule:evenodd;clip-rule:evenodd;stroke-linejoin:round;stroke-miterlimit:2;"><rect id="Artboard1" x="0" y="0" width="950.358" height="209.178" style="fill:none;"/><clipPath id="_clip1"><rect x="0" y="0" width="950.358" height="209.178"/></clipPath><g clip-path="url(#_clip1)"><rect x="-9.444" y="0" width="209.178" height="209.178" style="fill:none;"/><g><g><path d="M36.654,170.247c1.094,0.72 2.249,1.355 3.433,1.905c3.72,1.729 7.707,2.913 11.794,3.795c4.56,1.348 9.284,2.093 14.024,2.665c15.558,1.878 31.402,1.828 46.859,-0.429c3.679,-0.537 7.33,-1.209 10.902,-2.267c2.545,-0.575 5.056,-1.266 7.521,-2.107c2.633,-0.898 5.231,-2.037 7.538,-3.516c2.207,3.015 2.851,7.108 0.384,10.638c-2.561,3.665 -7.116,5.46 -11.559,6.809c-10.171,3.09 -20.938,3.981 -31.597,4.383c-12.855,0.485 -25.781,0.038 -38.424,-2.164c-5.785,-1.008 -11.714,-2.281 -16.622,-5.079c-2.821,-1.608 -5.392,-4.065 -6.064,-7.374c-0.468,-2.304 0.094,-4.783 1.433,-6.74c0.122,-0.177 0.248,-0.35 0.378,-0.519Z" style="fill:#24a148;"/><path d="M138.751,151.034c0.044,0.061 0.087,0.122 0.13,0.183c2.08,2.992 2.636,6.974 0.228,10.419c-2.561,3.665 -7.116,5.46 -11.559,6.81c-10.171,3.09 -20.938,3.98 -31.597,4.382c-12.855,0.486 -25.781,0.038 -38.424,-2.164c-5.785,-1.007 -11.714,-2.281 -16.622,-5.079c-2.821,-1.608 -5.393,-4.067 -6.064,-7.374c-0.468,-2.304 0.094,-4.782 1.433,-6.74l0.326,-0.426c0.887,0.544 2.548,1.43 3.485,1.866c3.927,1.824 8.161,3.046 12.499,3.945c4.341,1.221 8.823,1.919 13.319,2.461c15.558,1.878 31.402,1.828 46.859,-0.429c3.409,-0.497 6.794,-1.111 10.114,-2.04c2.814,-0.608 5.589,-1.352 8.309,-2.281c2.649,-0.904 5.255,-2.049 7.564,-3.533Z" style="fill:#24a148;"/><path d="M81.018,104.545c-11.507,-1.213 -22.604,-5.943 -31.351,-13.475c-9.808,-8.445 -16.644,-20.329 -18.927,-33.099c-1.146,-6.405 -1.182,-13.001 -0.122,-19.434l0.888,-5.315c1.885,-0.006 3.77,-0.021 5.656,-0.017c13.423,0.062 26.794,5.035 36.954,13.785c4.942,4.256 9.121,9.367 12.346,15.021c0.899,-2.265 1.917,-4.485 3.051,-6.649c9.5,-18.126 27.03,-31.814 46.932,-36.545c5.442,-1.293 11.084,-1.93 16.618,-1.939c1.921,0.006 3.841,0.012 5.762,0.019l0.826,5.428c2.241,14.983 -0.325,30.571 -7.348,43.972c-11.035,21.054 -32.796,35.979 -57.11,38.195c-0.101,5.121 -0.34,10.873 0.645,16.434c2.169,12.241 9.483,15.076 11.395,16.221c4.476,2.682 10.135,2.213 16.024,0.376l0.02,-0.352c-13.792,-2.729 -19.313,-8.592 -20.936,-15.932c0,0 14.476,1.403 21.494,3.093c4.471,1.076 9.036,2.423 12.597,5.101c3.874,2.914 5.806,8.483 2.678,12.96c-0.15,0.215 -0.309,0.424 -0.475,0.627c-2.703,3.308 -6.957,4.946 -11.27,6.24c-1.424,0.427 -5.889,1.385 -6.828,1.527c-4.104,0.622 -8.316,0.592 -12.35,-0.201c-3.418,-0.673 -10.064,-2.663 -15.033,-8.053c-9.375,-10.169 -12.145,-24.623 -12.136,-37.988Zm12.883,-12.532l0.006,0.105c11.418,-0.998 22.445,-5.368 31.42,-12.422c14.941,-11.743 23.617,-30.853 22.596,-49.907c0,0 0.13,-0.261 -0.177,-0.234c-11.307,1.024 -22.304,5.37 -31.258,12.408c-13.627,10.711 -22.071,27.674 -22.644,45.017c0.092,1.675 0.111,3.355 0.057,5.033Zm-12.51,-4.746c-0.559,-8.299 -3.454,-16.439 -8.348,-23.189c-7.172,-9.893 -18.594,-16.629 -30.671,-18.108c0,0 -0.038,-0.045 -0.041,0.036c-0.433,10.68 3.062,21.38 9.707,29.679c7.194,8.987 18.051,15.018 29.373,16.405l0.039,0.005l0.003,-0.072c-0.073,-1.585 -0.094,-3.171 -0.062,-4.756Z" style="fill:#24a148;"/><path d="M98.234,153.489c0,0 -1.326,0.06 -1.984,0.086c-12.968,0.508 -26.025,0.058 -38.721,-2.153c-5.79,-1.008 -11.714,-2.282 -16.621,-5.078c-2.812,-1.602 -5.389,-4.046 -6.065,-7.374c-0.468,-2.305 0.094,-4.783 1.434,-6.742c2.623,-3.832 7.437,-5.655 11.989,-7.004c8.047,-2.384 16.448,-3.346 24.83,-3.929c0.868,-0.061 1.771,-0.12 2.642,-0.169c1.165,5.136 2.565,9.03 4.095,12.241c-8.226,0.27 -16.417,1.037 -24.432,2.855c-1.309,0.297 -2.609,0.631 -3.891,1.019l-0.096,0.029c4.708,1.439 9.591,2.214 14.491,2.805c6.108,0.737 18.427,1.305 18.427,1.305c4.083,5.693 8.848,9.336 13.902,12.109Z" style="fill:#24a148;"/></g></g><text x="188.045px" y="181.437px" style="font-family:'Intro-Variablev2.0-Black', 'Intro - Variable v2.0';font-weight:800;font-size:143.315px;">F<tspan x="262.282px " y="181.437px ">o</tspan>unda<tspan x="658.836px " y="181.437px ">t</tspan>ion</text></g></svg>